# Blender v2.82 (sub 7) OBJ File: ''
# www.blender.org
o HRleg_rom_reduced_HRleg_rom
v 0.094960 -0.206503 -0.084837
v -0.307523 -0.180849 -0.042370
v -0.313588 -0.257896 -0.182246
v -0.043198 -0.275073 -0.229562
v -0.324702 -0.083393 -0.127987
v -0.301713 -0.015253 -0.251660
v -0.194398 -0.294239 -0.249621
v -0.202177 0.004749 -0.314965
v 0.101140 -0.075972 -0.142672
v 0.030571 -0.138010 -0.236972
v -0.275168 -0.156914 -0.284248
v -0.165385 -0.143030 -0.329407
v -0.047928 -0.001685 -0.277958
vn -0.0238 0.9634 0.2669
vn -0.9913 -0.0923 0.0938
vn 0.1213 0.3973 0.9096
vn 0.0027 0.8778 0.4790
vn 0.2366 0.1527 -0.9595
vn 0.0143 0.6614 0.7499
vn -0.3800 -0.0042 -0.9250
vn 0.0055 -0.8760 0.4823
vn 0.0014 0.8758 0.4828
vn -0.0056 -0.8786 0.4776
vn 0.0677 -0.9251 0.3737
vn 0.7122 0.2086 -0.6702
vn -0.9067 -0.0744 -0.4152
vn 0.4270 -0.0259 -0.9039
vn 0.8468 -0.2485 -0.4703
vn -0.9827 -0.0049 -0.1854
vn 0.4163 -0.2710 -0.8679
vn -0.3055 -0.3978 -0.8651
vn -0.5472 0.0889 -0.8323
vn -0.5374 -0.4893 -0.6868
vn 0.7462 -0.4291 -0.5090
vn 0.1752 -0.4855 -0.8565
s off
f 6//1 13//1 8//1
f 3//2 2//2 5//2
f 1//3 9//3 2//3
f 13//4 6//4 9//4
f 12//5 8//5 13//5
f 9//6 5//6 2//6
f 12//7 11//7 8//7
f 7//8 2//8 3//8
f 5//9 9//9 6//9
f 7//10 1//10 2//10
f 7//11 4//11 1//11
f 10//12 13//12 9//12
f 11//13 3//13 6//13
f 10//14 12//14 13//14
f 1//15 10//15 9//15
f 5//16 6//16 3//16
f 4//17 12//17 10//17
f 11//18 12//18 7//18
f 11//19 6//19 8//19
f 7//20 3//20 11//20
f 4//21 10//21 1//21
f 4//22 7//22 12//22
