# Blender v2.77 (sub 0) OBJ File: ''
# www.blender.org
mtllib FL_FOOT_constraints_in_HLleg_reduced.mtl
o FL_FOOT_constraints_in_HLleg_reduced_FL_FOOT_constraints_in_HLl
v 0.195021 0.145844 -0.059562
v 0.245060 0.097910 0.160143
v 0.273673 0.263577 0.123349
v 0.624426 0.035127 0.137910
v 0.526963 -0.157682 0.131438
v 0.582247 -0.204357 -0.019412
v 0.576409 -0.047789 -0.198880
v 0.546733 0.126255 -0.150209
v 0.618152 0.167346 0.014701
v 0.372604 -0.164107 -0.170244
v 0.144837 -0.099746 -0.015107
v 0.508171 0.142299 0.201238
v 0.480988 -0.212224 -0.195284
v 0.227535 -0.275296 -0.015546
vn -0.9395 0.2205 0.2621
vn 0.8025 -0.4199 0.4240
vn 0.9683 0.0543 -0.2439
vn -0.2400 0.2093 -0.9479
vn -0.9342 0.2388 0.2649
vn -0.1118 -0.2318 0.9663
vn -0.1897 0.2440 0.9510
vn 0.7199 0.4911 0.4904
vn -0.0847 0.8540 -0.5133
vn 0.1656 0.9377 -0.3054
vn 0.9884 -0.0972 -0.1170
vn -0.5689 -0.0325 -0.8218
vn -0.1873 0.0873 -0.9784
vn 0.3244 -0.1950 0.9256
vn 0.7779 -0.4608 -0.4273
vn 0.1872 -0.9170 0.3523
vn -0.5932 -0.2775 -0.7557
vn -0.4045 -0.5195 -0.7527
vn 0.1949 -0.9784 -0.0685
vn -0.3809 -0.3791 0.8433
vn 0.3478 0.8801 0.3232
usemtl None
s 1
f 1//1 2//1 3//1
f 4//2 5//2 6//2
f 4//3 7//3 8//3 9//3
f 8//4 7//4 10//4 1//4
f 11//5 2//5 1//5
f 2//6 5//6 12//6
f 2//7 12//7 3//7
f 4//8 9//8 12//8
f 8//9 1//9 3//9
f 9//10 8//10 3//10
f 7//11 4//11 6//11
f 10//12 11//12 1//12
f 10//13 7//13 13//13
f 5//14 4//14 12//14
f 6//15 13//15 7//15
f 14//16 6//16 5//16
f 14//17 11//17 10//17
f 14//18 10//18 13//18
f 14//19 13//19 6//19
f 2//20 11//20 14//20 5//20
f 9//21 3//21 12//21
