# Blender v2.77 (sub 0) OBJ File: ''
# www.blender.org
mtllib FL_FOOT_constraints_in_FRleg_reduced.mtl
o FL_FOOT_constraints_in_FRleg_reduced_FL_FOOT_constraints_in_FRl
v 0.215664 0.145960 -0.078767
v 0.367146 0.151523 0.020702
v 0.236935 0.140896 0.165757
v 0.400582 0.378704 0.051495
v -0.171040 0.219532 -0.199045
v -0.342642 0.337888 -0.128080
v -0.161455 0.452507 -0.195645
v 0.223429 0.419426 0.186108
v -0.298795 0.332580 0.206120
v 0.332678 0.254889 -0.140179
v 0.267294 0.487051 -0.071359
v -0.150085 0.529545 0.039502
v -0.425628 0.245269 0.048618
v -0.178392 0.139695 0.081983
vn 0.0533 -0.9983 -0.0253
vn 0.7368 -0.1961 0.6470
vn -0.3651 0.0286 -0.9305
vn 0.0499 -0.0704 0.9963
vn 0.1344 -0.5923 -0.7944
vn 0.7742 0.3702 -0.5134
vn 0.3916 -0.7337 -0.5553
vn -0.6636 0.7430 -0.0873
vn 0.2370 0.3369 -0.9112
vn 0.0139 0.9500 -0.3119
vn -0.0967 -0.9568 -0.2743
vn -0.1563 -0.6017 0.7833
vn -0.3483 -0.8993 -0.2646
vn 0.1699 0.9456 0.2773
vn 0.6005 -0.0293 0.7991
vn 0.9567 -0.1040 -0.2718
vn 0.0072 -0.9997 -0.0213
vn -0.7027 0.6870 0.1850
vn -0.6125 -0.5445 -0.5731
vn 0.4225 0.8564 0.2969
vn -0.3686 -0.6548 0.6598
vn 0.1154 0.0097 -0.9933
vn -0.0852 0.6802 0.7280
usemtl None
s 1
f 1//1 2//1 3//1
f 3//2 2//2 4//2
f 5//3 6//3 7//3
f 8//4 9//4 3//4
f 1//5 5//5 10//5
f 4//6 10//6 11//6
f 2//7 1//7 10//7
f 12//8 7//8 6//8 13//8
f 10//9 7//9 11//9
f 7//10 12//10 11//10
f 1//11 14//11 5//11
f 9//12 14//12 3//12
f 14//13 13//13 5//13
f 8//14 11//14 12//14
f 3//15 4//15 8//15
f 2//16 10//16 4//16
f 1//17 3//17 14//17
f 9//18 12//18 13//18
f 6//19 5//19 13//19
f 4//20 11//20 8//20
f 14//21 9//21 13//21
f 7//22 10//22 5//22
f 8//23 12//23 9//23
