# Blender v2.82 (sub 7) OBJ File: ''
# www.blender.org
o FL_FOOT_constraints_in_HLleg_reduced_FL_FOOT_constraints_in_HLleg
v 0.480988 -0.212224 -0.195284
v -0.155163 -0.099746 -0.015107
v 0.072604 -0.164107 -0.170244
v 0.227535 -0.275296 -0.015546
v -0.104979 0.145844 -0.059562
v 0.576409 -0.047789 -0.198880
v 0.582247 -0.204357 -0.019412
v 0.618152 0.167346 0.014701
v 0.624426 0.035127 0.137910
v -0.054940 0.097910 0.160143
v 0.508171 0.142299 0.201238
v 0.273673 0.263577 0.123349
v 0.546733 0.126255 -0.150209
v 0.526963 -0.157682 0.131438
vn -0.4065 0.8690 0.2822
vn 0.8025 -0.4199 0.4240
vn 0.9683 0.0543 -0.2439
vn -0.1208 0.2634 -0.9571
vn -0.9342 0.2388 0.2649
vn -0.0528 -0.2294 0.9719
vn -0.0979 0.3969 0.9126
vn 0.7199 0.4911 0.4904
vn -0.0405 0.8762 -0.4802
vn 0.1656 0.9377 -0.3054
vn 0.9884 -0.0972 -0.1170
vn -0.5689 -0.0325 -0.8218
vn -0.0597 0.0128 -0.9981
vn 0.3244 -0.1950 0.9256
vn 0.7779 -0.4608 -0.4273
vn 0.1872 -0.9170 0.3523
vn -0.4061 -0.8846 -0.2292
vn -0.1316 -0.8627 -0.4883
vn 0.1949 -0.9784 -0.0685
vn -0.2200 -0.5468 0.8078
vn 0.3478 0.8801 0.3232
s off
f 5//1 10//1 12//1
f 9//2 14//2 7//2
f 9//3 6//3 13//3 8//3
f 13//4 6//4 3//4 5//4
f 2//5 10//5 5//5
f 10//6 14//6 11//6
f 10//7 11//7 12//7
f 9//8 8//8 11//8
f 13//9 5//9 12//9
f 8//10 13//10 12//10
f 6//11 9//11 7//11
f 3//12 2//12 5//12
f 3//13 6//13 1//13
f 14//14 9//14 11//14
f 7//15 1//15 6//15
f 4//16 7//16 14//16
f 4//17 2//17 3//17
f 4//18 3//18 1//18
f 4//19 1//19 7//19
f 10//20 2//20 4//20 14//20
f 8//21 12//21 11//21
