# Blender v2.82 (sub 7) OBJ File: ''
# www.blender.org
o FL_FOOT_constraints_in_HRleg_reduced_FL_FOOT_constraints_in_HRleg
v 0.604822 0.174421 -0.158848
v 0.503193 0.464004 0.186880
v 0.080992 0.034516 -0.055848
v 0.575006 0.462746 -0.117402
v 0.034648 0.445921 -0.106550
v -0.149208 0.157734 0.034437
v 0.246475 0.541169 -0.017302
v -0.111691 0.262374 -0.128778
v 0.559883 0.388869 -0.200330
v -0.083610 0.451308 0.067019
v 0.387887 0.016305 -0.068712
v 0.516112 0.126099 0.189902
v 0.620257 0.281047 0.113893
v 0.142911 0.158234 0.191743
vn 0.8596 0.4698 0.2009
vn -0.3118 0.9191 -0.2409
vn 0.0057 0.0092 0.9999
vn -0.0599 -0.3499 -0.9349
vn -0.0874 -0.4001 -0.9123
vn -0.4741 0.0082 0.8804
vn -0.5521 -0.6385 -0.5362
vn -0.0365 0.7366 -0.6754
vn -0.6619 0.5846 -0.4691
vn -0.0338 -0.8906 0.4535
vn -0.0659 -0.2028 -0.9770
vn -0.0757 -0.9038 0.4213
vn -0.1160 0.8721 0.4754
vn 0.8529 -0.5009 0.1475
vn -0.2585 -0.8367 0.4828
vn 0.9816 0.1226 -0.1465
vn 0.5609 0.0288 0.8274
vn 0.2475 0.9674 0.0544
vn -0.1990 0.2495 0.9477
vn -0.9710 0.2257 -0.0785
vn -0.1463 0.2331 -0.9614
vn 0.5998 -0.7991 0.0419
s off
f 2//1 13//1 4//1
f 10//2 7//2 5//2
f 12//3 2//3 14//3
f 3//4 8//4 11//4
f 11//5 8//5 1//5
f 6//6 14//6 10//6
f 8//7 3//7 6//7
f 7//8 4//8 9//8 5//8
f 8//9 10//9 5//9
f 11//10 14//10 3//10
f 9//11 1//11 8//11
f 14//12 11//12 12//12
f 10//13 2//13 7//13
f 1//14 13//14 12//14
f 3//15 14//15 6//15
f 9//16 4//16 13//16 1//16
f 12//17 13//17 2//17
f 2//18 4//18 7//18
f 14//19 2//19 10//19
f 6//20 10//20 8//20
f 8//21 5//21 9//21
f 11//22 1//22 12//22
