# Blender v2.77 (sub 0) OBJ File: ''
# www.blender.org
mtllib FR_FOOT_constraints_in_HLleg_reduced.mtl
o FR_FOOT_constraints_in_HLleg_reduced_FR_FOOT_constraints_in_HLl
v 0.321361 -0.555352 0.007755
v 0.593288 -0.441687 -0.091410
v 0.476971 -0.464887 0.173533
v 0.251003 -0.109364 0.037261
v 0.212527 -0.202433 0.163562
v 0.523292 -0.162003 0.194505
v 0.610190 -0.358364 0.167606
v 0.567776 -0.158001 -0.189647
v 0.620671 -0.129739 0.046048
v 0.288086 -0.467101 -0.163594
v 0.123535 -0.231954 -0.063627
v 0.259456 -0.469360 0.109201
v 0.139841 -0.377147 -0.022964
v 0.510434 -0.402942 -0.196629
vn 0.4154 -0.9038 0.1032
vn -0.1614 0.8173 0.5531
vn 0.6169 -0.7601 0.2043
vn 0.9907 -0.0282 -0.1334
vn -0.2971 0.1899 -0.9358
vn -0.2896 0.7695 -0.5692
vn -0.8573 -0.5061 -0.0942
vn -0.7607 0.6111 0.2186
vn -0.7426 -0.2566 -0.6186
vn 0.1773 -0.8605 -0.4776
vn 0.0577 0.9896 -0.1316
vn 0.0477 0.9691 0.2419
vn -0.9310 -0.0023 0.3650
vn -0.2710 -0.2376 0.9328
vn 0.1126 -0.0858 0.9899
vn -0.7984 -0.2518 0.5469
vn -0.1556 -0.7983 0.5817
vn 0.7472 -0.1565 -0.6460
vn -0.1655 0.0668 -0.9840
vn -0.5626 -0.8241 -0.0659
vn 0.7783 0.2666 0.5685
vn 0.1903 -0.8632 -0.4677
vn -0.0919 -0.0548 0.9943
usemtl None
s 1
f 1//1 2//1 3//1
f 4//2 5//2 6//2
f 3//3 2//3 7//3
f 7//4 2//4 8//4 9//4
f 8//5 10//5 11//5
f 4//6 8//6 11//6
f 1//7 12//7 10//7
f 5//8 4//8 11//8
f 10//9 13//9 11//9
f 14//10 1//10 10//10
f 8//11 4//11 9//11
f 6//12 9//12 4//12
f 5//13 11//13 13//13
f 12//14 3//14 5//14
f 3//15 7//15 6//15
f 5//16 13//16 12//16
f 1//17 3//17 12//17
f 2//18 14//18 8//18
f 8//19 14//19 10//19
f 10//20 12//20 13//20
f 7//21 9//21 6//21
f 2//22 1//22 14//22
f 3//23 6//23 5//23
