# Blender v2.77 (sub 0) OBJ File: ''
# www.blender.org
mtllib HL_FOOT_constraints_in_FRleg_reduced.mtl
o HL_FOOT_constraints_in_FRleg_reduced_HL_FOOT_constraints_in_FRl
v -0.620327 0.160998 -0.046167
v -0.610668 0.357731 -0.167598
v -0.523423 0.161921 -0.194263
v -0.254057 0.111053 -0.037113
v -0.267157 0.174166 -0.170458
v -0.263764 0.411577 0.175449
v -0.029959 0.381834 0.026965
v -0.239183 0.556938 0.041137
v -0.072119 0.163261 0.054062
v -0.567651 0.189437 0.189624
v -0.591808 0.443913 0.090276
v -0.511388 0.398822 0.197323
v -0.476971 0.464887 -0.173533
v -0.175718 0.423994 -0.107677
vn -0.8012 -0.2853 -0.5260
vn 0.0831 -0.8976 -0.4330
vn 0.4988 0.5412 0.6770
vn 0.4383 -0.7950 -0.4193
vn -0.9902 0.0345 0.1355
vn 0.0909 -0.0610 0.9940
vn 0.2408 -0.2699 0.9323
vn -0.1120 0.0849 -0.9901
vn 0.5734 0.7172 -0.3961
vn 0.6287 -0.2140 -0.7476
vn 0.2312 0.1567 -0.9602
vn -0.3123 0.9480 -0.0606
vn 0.0614 -0.9141 0.4009
vn -0.1372 -0.9793 0.1488
vn -0.1323 -0.9869 -0.0927
vn -0.1992 0.8406 0.5037
vn 0.0303 0.6756 0.7367
vn 0.5362 0.0012 0.8441
vn -0.7493 0.1779 0.6379
vn 0.7478 -0.1091 -0.6549
vn 0.2339 0.7725 -0.5904
vn -0.6173 0.7586 -0.2084
vn 0.0898 0.0543 -0.9945
usemtl None
s 1
f 1//1 2//1 3//1
f 4//2 3//2 5//2
f 6//3 7//3 8//3
f 9//4 4//4 5//4
f 2//5 1//5 10//5 11//5
f 12//6 10//6 6//6
f 10//7 9//7 6//7
f 13//8 3//8 2//8
f 14//9 8//9 7//9
f 9//10 14//10 7//10
f 5//11 13//11 14//11
f 13//12 11//12 8//12
f 10//13 4//13 9//13
f 4//14 10//14 1//14
f 3//15 4//15 1//15
f 8//16 11//16 12//16
f 12//17 6//17 8//17
f 9//18 7//18 6//18
f 10//19 12//19 11//19
f 9//20 5//20 14//20
f 13//21 8//21 14//21
f 2//22 11//22 13//22
f 3//23 13//23 5//23
