# Blender v2.77 (sub 0) OBJ File: ''
# www.blender.org
mtllib HL_FOOT_constraints_in_FLleg_reduced.mtl
o HL_FOOT_constraints_in_FLleg_reduced_HL_FOOT_constraints_in_FLl
v -0.099782 0.095958 0.025017
v -0.196758 0.267013 0.016001
v -0.335501 0.164107 0.170244
v -0.611097 -0.024336 -0.149826
v -0.538798 0.208281 -0.092064
v -0.506155 -0.144048 -0.201272
v -0.244405 -0.167339 0.089857
v -0.592833 0.058132 0.198084
v -0.628611 -0.160570 -0.019601
v -0.480921 0.212104 0.195380
v -0.262740 -0.261787 -0.125725
v -0.549505 -0.126323 0.149938
v -0.176028 -0.034918 -0.183991
v -0.101179 -0.075309 -0.017559
vn 0.5626 0.3582 0.7451
vn -0.1450 0.2807 -0.9488
vn 0.5089 -0.0682 0.8581
vn -0.9532 0.3016 -0.0214
vn -0.7361 -0.4158 -0.5340
vn -0.7981 0.5828 0.1529
vn -0.3355 -0.8906 -0.3071
vn -0.8344 -0.3142 0.4528
vn 0.3428 0.5350 -0.7722
vn -0.0465 0.2918 -0.9553
vn -0.9894 0.1442 0.0178
vn 0.1481 -0.2987 -0.9428
vn -0.1813 -0.9441 0.2753
vn -0.0433 -0.9137 0.4040
vn 0.1421 -0.0860 0.9861
vn -0.1760 0.9841 0.0224
vn 0.9163 0.0896 -0.3904
vn 0.6515 -0.7137 0.2573
vn 0.6631 -0.1857 0.7251
vn 0.7865 -0.4175 -0.4550
vn 0.1735 -0.1953 0.9653
vn 0.3282 0.6224 0.7105
usemtl None
s 1
f 1//1 2//1 3//1
f 4//2 5//2 6//2
f 7//3 1//3 3//3
f 4//4 8//4 5//4
f 6//5 9//5 4//5
f 10//6 5//6 8//6
f 9//7 6//7 11//7
f 12//8 8//8 9//8
f 2//9 1//9 13//9 5//9
f 6//10 5//10 13//10
f 8//11 4//11 9//11
f 11//12 6//12 13//12
f 11//13 12//13 9//13
f 12//14 11//14 7//14
f 8//15 3//15 10//15
f 5//16 10//16 2//16
f 14//17 13//17 1//17
f 11//18 14//18 7//18
f 14//19 1//19 7//19
f 14//20 11//20 13//20
f 3//21 8//21 12//21 7//21
f 3//22 2//22 10//22
