# Blender v2.82 (sub 7) OBJ File: ''
# www.blender.org
o HL_FOOT_constraints_in_FRleg_reduced_HL_FOOT_constraints_in_FRleg
v 0.127881 0.131701 0.054062
v -0.567651 0.157877 0.189624
v -0.620327 0.129438 -0.046167
v -0.239183 0.556938 0.041137
v -0.610668 0.357731 -0.167598
v -0.511388 0.398822 0.197323
v -0.591808 0.443913 0.090276
v -0.067157 0.174166 -0.170458
v -0.254057 0.008942 -0.037113
v 0.170041 0.381834 0.026965
v 0.024282 0.423994 -0.107677
v -0.476971 0.464887 -0.173533
v -0.063764 0.411577 0.175449
v -0.523423 0.161921 -0.194263
vn -0.7778 -0.2692 -0.5680
vn 0.0567 -0.6651 -0.7446
vn 0.3699 0.8307 0.4160
vn 0.3699 -0.7999 -0.4726
vn -0.9902 0.0306 0.1364
vn 0.0500 -0.0436 0.9978
vn 0.1725 -0.2901 0.9413
vn -0.1120 0.0849 -0.9901
vn 0.3861 0.9130 -0.1321
vn 0.6365 -0.1883 -0.7480
vn 0.1432 0.1916 -0.9710
vn -0.3123 0.9480 -0.0606
vn 0.0949 -0.7668 0.6349
vn -0.3113 -0.9327 0.1820
vn -0.2810 -0.8824 -0.3774
vn -0.1992 0.8406 0.5037
vn 0.0158 0.6888 0.7248
vn 0.5362 0.0011 0.8441
vn -0.7569 0.1565 0.6345
vn 0.7409 -0.1045 -0.6634
vn 0.1366 0.8466 -0.5144
vn -0.6173 0.7586 -0.2084
vn 0.0504 0.0605 -0.9969
s off
f 3//1 5//1 14//1
f 9//2 14//2 8//2
f 13//3 10//3 4//3
f 1//4 9//4 8//4
f 5//5 3//5 2//5 7//5
f 6//6 2//6 13//6
f 2//7 1//7 13//7
f 12//8 14//8 5//8
f 11//9 4//9 10//9
f 1//10 11//10 10//10
f 8//11 12//11 11//11
f 12//12 7//12 4//12
f 2//13 9//13 1//13
f 9//14 2//14 3//14
f 14//15 9//15 3//15
f 4//16 7//16 6//16
f 6//17 13//17 4//17
f 1//18 10//18 13//18
f 2//19 6//19 7//19
f 1//20 8//20 11//20
f 12//21 4//21 11//21
f 5//22 7//22 12//22
f 14//23 12//23 8//23
