# Blender v2.82 (sub 7) OBJ File: ''
# www.blender.org
o HR_FOOT_constraints_in_FLleg_reduced_HR_FOOT_constraints_in_FLleg
v -0.502383 -0.463015 -0.187297
v -0.059029 -0.038734 0.052491
v 0.147233 -0.158657 -0.036964
v 0.081273 -0.452738 -0.067537
v -0.605835 -0.176899 0.160575
v -0.577916 -0.463602 0.114101
v -0.244381 -0.541328 0.019105
v -0.034995 -0.444257 0.105319
v -0.518056 -0.126189 -0.190021
v -0.560071 -0.388300 0.200249
v -0.618340 -0.275052 -0.116519
v 0.112753 -0.257048 0.128376
v -0.384186 -0.014209 0.066997
v -0.142911 -0.158234 -0.191743
vn -0.2435 -0.9679 -0.0629
vn 0.4706 -0.0138 -0.8822
vn 0.9719 -0.2251 0.0687
vn 0.6620 -0.5808 0.4738
vn -0.9833 -0.1182 0.1386
vn 0.0371 -0.7306 0.6818
vn 0.3169 -0.9127 0.2580
vn 0.0748 0.8993 -0.4308
vn -0.6009 0.7986 -0.0349
vn 0.0861 0.4061 0.9098
vn -0.8652 -0.4518 -0.2177
vn -0.5588 -0.0327 -0.8287
vn 0.0470 0.8908 -0.4520
vn -0.8519 0.5046 -0.1403
vn 0.1123 -0.8744 -0.4721
vn 0.0696 0.3759 0.9240
vn 0.1989 -0.2484 -0.9480
vn 0.5870 0.6360 0.5009
vn 0.2657 0.8268 -0.4958
vn 0.1485 -0.2355 0.9605
vn -0.0053 -0.0083 -1.0000
vn 0.0659 0.1978 0.9780
s off
f 6//1 1//1 7//1
f 4//2 14//2 3//2
f 12//3 4//3 3//3
f 12//4 8//4 4//4
f 10//5 5//5 11//5 6//5
f 10//6 6//6 7//6 8//6
f 8//7 7//7 4//7
f 13//8 14//8 9//8
f 9//9 5//9 13//9
f 5//10 12//10 13//10
f 1//11 6//11 11//11
f 11//12 9//12 1//12
f 14//13 13//13 2//13
f 5//14 9//14 11//14
f 7//15 1//15 4//15
f 12//16 2//16 13//16
f 1//17 14//17 4//17
f 12//18 3//18 2//18
f 3//19 14//19 2//19
f 12//20 10//20 8//20
f 1//21 9//21 14//21
f 10//22 12//22 5//22
