# Blender v2.82 (sub 7) OBJ File: ''
# www.blender.org
o HR_FOOT_constraints_in_FRleg_reduced_HR_FOOT_constraints_in_FRleg
v -0.050171 -0.022323 0.181764
v -0.548975 0.114384 0.161746
v 0.063245 0.165782 0.042340
v 0.115068 -0.091682 0.055652
v -0.542195 -0.144266 0.194715
v 0.029879 -0.098073 -0.082224
v -0.237990 0.271534 -0.030248
v -0.612983 0.170138 -0.133841
v -0.331200 0.213073 -0.201270
v -0.519755 -0.108385 -0.178524
v -0.635709 -0.134683 0.026639
v -0.196455 -0.214043 0.156540
v -0.325079 -0.286856 0.036513
v 0.128040 0.092318 -0.072427
vn -0.4366 -0.8787 0.1928
vn 0.6416 0.1678 0.7484
vn 0.9025 0.2013 0.3807
vn 0.3976 -0.9090 0.1253
vn 0.1161 0.5453 0.8302
vn 0.3450 0.8145 -0.4665
vn -0.8722 0.0393 0.4875
vn -0.9494 0.1988 0.2431
vn 0.7931 -0.3846 -0.4722
vn 0.2499 -0.0792 -0.9650
vn 0.4040 -0.8907 -0.2083
vn -0.2427 0.0739 -0.9673
vn 0.1732 -0.1702 -0.9701
vn -0.0052 0.1263 0.9920
vn -0.1979 0.9555 -0.2188
vn -0.4054 -0.8494 -0.3380
vn 0.3829 0.8609 -0.3349
vn -0.8415 -0.2012 -0.5014
vn 0.0713 -0.1834 0.9805
vn 0.0781 0.7057 0.7041
vn 0.1362 -0.6982 -0.7028
vn -0.0967 -0.8017 0.5899
vn 0.4266 -0.4302 0.7956
vn -0.3149 0.9179 0.2413
s off
f 13//1 5//1 11//1
f 1//2 4//2 3//2
f 4//3 14//3 3//3
f 12//4 13//4 4//4
f 2//5 1//5 3//5
f 14//6 9//6 7//6
f 11//7 5//7 2//7
f 11//8 2//8 8//8
f 6//9 14//9 4//9
f 6//10 9//10 14//10
f 13//11 6//11 4//11
f 8//12 9//12 10//12
f 6//13 10//13 9//13
f 2//14 5//14 1//14
f 7//15 9//15 8//15
f 11//16 10//16 13//16
f 3//17 14//17 7//17
f 10//18 11//18 8//18
f 5//19 12//19 1//19
f 2//20 3//20 7//20
f 10//21 6//21 13//21
f 13//22 12//22 5//22
f 4//23 1//23 12//23
f 2//24 7//24 8//24
