# Blender v2.77 (sub 0) OBJ File: ''
# www.blender.org
mtllib HR_FOOT_constraints_in_FRleg_reduced.mtl
o HR_FOOT_constraints_in_FRleg_reduced_HR_FOOT_constraints_in_FRl
v -0.325079 -0.286856 0.036513
v -0.542195 -0.144266 0.194715
v -0.635709 -0.134683 0.026639
v -0.350171 -0.022323 0.181764
v -0.148073 -0.091682 0.055652
v -0.236755 0.165782 0.042340
v -0.171960 0.092318 -0.072427
v -0.196455 -0.214043 0.156540
v -0.548975 0.114384 0.161746
v -0.331200 0.213073 -0.201270
v -0.237990 0.271534 -0.030248
v -0.612983 0.170138 -0.133841
v -0.270121 -0.098073 -0.082224
v -0.519755 -0.108385 -0.178524
vn -0.4366 -0.8787 0.1928
vn 0.5716 0.2375 0.7854
vn 0.8974 0.3246 0.2989
vn 0.7011 -0.5977 -0.3887
vn 0.2439 0.4783 0.8437
vn 0.7404 0.3999 -0.5402
vn -0.8722 0.0393 0.4875
vn -0.9494 0.1988 0.2431
vn 0.7129 -0.3359 -0.6155
vn 0.5080 -0.2190 -0.8331
vn 0.6460 -0.5322 -0.5472
vn -0.2427 0.0739 -0.9673
vn 0.3561 -0.2721 -0.8939
vn -0.0132 0.1261 0.9919
vn -0.1979 0.9555 -0.2187
vn -0.4054 -0.8494 -0.3380
vn 0.9029 0.2504 0.3495
vn -0.8415 -0.2012 -0.5014
vn 0.0994 -0.0510 0.9937
vn 0.2162 0.5542 0.8038
vn 0.3163 -0.5693 -0.7588
vn -0.0967 -0.8017 0.5899
vn 0.5799 0.3694 0.7261
vn -0.3149 0.9179 0.2413
usemtl None
s 1
f 1//1 2//1 3//1
f 4//2 5//2 6//2
f 5//3 7//3 6//3
f 8//4 1//4 5//4
f 9//5 4//5 6//5
f 7//6 10//6 11//6
f 3//7 2//7 9//7
f 3//8 9//8 12//8
f 13//9 7//9 5//9
f 13//10 10//10 7//10
f 1//11 13//11 5//11
f 12//12 10//12 14//12
f 13//13 14//13 10//13
f 9//14 2//14 4//14
f 11//15 10//15 12//15
f 3//16 14//16 1//16
f 6//17 7//17 11//17
f 14//18 3//18 12//18
f 2//19 8//19 4//19
f 9//20 6//20 11//20
f 14//21 13//21 1//21
f 1//22 8//22 2//22
f 5//23 4//23 8//23
f 9//24 11//24 12//24
